<svg width="97" height="32" viewBox="0 0 97 32" fill="none" xmlns="http://www.w3.org/2000/svg">
<g clip-path="url(#clip0_4893_31713)">
<path d="M88.5766 0.000104H8.09649C7.80313 0.000104 7.51329 0.000104 7.22071 0.001704C6.97579 0.003304 6.73282 0.007952 6.48555 0.011864C5.94836 0.0181854 5.41244 0.065445 4.88243 0.153232C4.35317 0.24293 3.84049 0.412037 3.36173 0.654832C2.88355 0.899681 2.44663 1.21784 2.06681 1.59776C1.68499 1.97661 1.36672 2.41452 1.12423 2.89463C0.88107 3.37379 0.712462 3.88725 0.62423 4.41729C0.535159 4.94665 0.487229 5.48212 0.48087 6.01889C0.473446 6.26417 0.472662 6.51026 0.46875 6.75558V25.247C0.472662 25.4954 0.473446 25.736 0.48087 25.9845C0.487231 26.5212 0.535161 27.0567 0.62423 27.586C0.712219 28.1164 0.880837 28.6301 1.12423 29.1095C1.36661 29.588 1.68493 30.0242 2.06681 30.4009C2.44519 30.7825 2.88239 31.1009 3.36173 31.3439C3.84048 31.5873 4.35311 31.7574 4.88243 31.8485C5.41253 31.9356 5.9484 31.9829 6.48555 31.9899C6.73282 31.9954 6.97579 31.9985 7.22071 31.9985C7.51329 32.0001 7.80315 32.0001 8.09649 32.0001H88.5766C88.8641 32.0001 89.1562 32.0001 89.4438 31.9985C89.6875 31.9985 89.9375 31.9954 90.1813 31.9899C90.7174 31.9832 91.2523 31.936 91.7813 31.8485C92.3123 31.7568 92.8268 31.5867 93.3078 31.3439C93.7867 31.1007 94.2235 30.7824 94.6016 30.4009C94.9825 30.0227 95.3015 29.5869 95.5469 29.1095C95.7885 28.6298 95.9555 28.1161 96.0422 27.586C96.1314 27.0566 96.181 26.5213 96.1906 25.9845C96.1938 25.736 96.1938 25.4954 96.1938 25.247C96.2 24.9563 96.2 24.6673 96.2 24.3719V7.62901C96.2 7.33604 96.2 7.04541 96.1938 6.75558C96.1938 6.51026 96.1938 6.26417 96.1906 6.01886C96.181 5.48204 96.1314 4.94669 96.0422 4.41726C95.9552 3.88753 95.7882 3.37411 95.5469 2.8946C95.0531 1.93226 94.27 1.14892 93.3078 0.65476C92.8268 0.412558 92.3123 0.243496 91.7813 0.15316C91.2524 0.0649862 90.7175 0.0177102 90.1813 0.011752C89.9375 0.007848 89.6875 0.00316 89.4438 0.0016C89.1562 0 88.8641 0 88.5766 0V0.000104Z" fill="#A6A6A6"/>
<path d="M7.22445 31.2992C6.9807 31.2992 6.74285 31.2961 6.50102 31.2907C6.00004 31.2841 5.50024 31.2405 5.0057 31.1602C4.54458 31.0808 4.09787 30.933 3.68031 30.7219C3.26659 30.5124 2.88923 30.2378 2.56271 29.9086C2.23146 29.5832 1.95569 29.2058 1.7463 28.7914C1.53462 28.3743 1.38811 27.9271 1.3119 27.4656C1.2296 26.9697 1.18508 26.4683 1.1787 25.9656C1.17363 25.7969 1.16699 25.2351 1.16699 25.2351V6.75469C1.16699 6.75469 1.17406 6.20156 1.17874 6.03906C1.18484 5.5372 1.22911 5.03654 1.31117 4.5414C1.38752 4.07862 1.53413 3.63022 1.74594 3.21172C1.95455 2.79757 2.2288 2.41991 2.55805 2.09336C2.88693 1.76372 3.26549 1.4877 3.67992 1.27539C4.09652 1.06489 4.54238 0.918205 5.00258 0.840235C5.49873 0.759088 6.00027 0.715216 6.50298 0.708987L7.22484 0.699219H89.4397L90.1702 0.709379C90.6683 0.715298 91.1653 0.758779 91.6569 0.839451C92.1217 0.918399 92.5722 1.06611 92.9936 1.27773C93.8239 1.70561 94.4994 2.38255 94.9256 3.21368C95.134 3.62928 95.2784 4.07402 95.3538 4.53281C95.4368 5.03201 95.4833 5.53661 95.4928 6.04258C95.4951 6.26914 95.4951 6.5125 95.4951 6.75469C95.5014 7.05469 95.5014 7.34023 95.5014 7.62812V24.3711C95.5014 24.6617 95.5014 24.9453 95.4951 25.2312C95.4951 25.4914 95.4951 25.7297 95.492 25.975C95.4827 26.4719 95.437 26.9675 95.3553 27.4578C95.2806 27.9226 95.1349 28.3732 94.9233 28.7938C94.7124 29.2037 94.4382 29.5778 94.1108 29.9023C93.784 30.2334 93.406 30.5096 92.9913 30.7203C92.5711 30.9331 92.1212 31.0814 91.6569 31.1602C91.1624 31.2409 90.6625 31.2846 90.1615 31.2907C89.9272 31.2961 89.6818 31.2992 89.4436 31.2992L88.5764 31.3008L7.22445 31.2992Z" fill="black"/>
<path d="M20.2837 16.2418C20.2923 15.5741 20.4696 14.9194 20.7992 14.3386C21.1289 13.7579 21.6 13.2699 22.1689 12.9202C21.8075 12.4041 21.3308 11.9793 20.7765 11.6797C20.2222 11.38 19.6057 11.2137 18.976 11.194C17.6326 11.053 16.3302 11.9979 15.6457 11.9979C14.9478 11.9979 13.8938 11.208 12.7589 11.2314C12.0247 11.2551 11.3092 11.4686 10.6821 11.851C10.055 12.2335 9.53769 12.7718 9.18051 13.4137C7.63331 16.0924 8.78739 20.0293 10.2695 22.1945C11.011 23.2548 11.8776 24.4392 13.0116 24.3972C14.1212 24.3512 14.5357 23.6896 15.8751 23.6896C17.2021 23.6896 17.5909 24.3972 18.7479 24.3705C19.9386 24.3512 20.6888 23.3055 21.4043 22.2352C21.9371 21.4797 22.3471 20.6447 22.619 19.7612C21.9273 19.4686 21.3369 18.9788 20.9216 18.353C20.5063 17.7272 20.2845 16.9929 20.2837 16.2418Z" fill="white"/>
<path d="M18.0982 9.76906C18.7474 8.98969 19.0673 7.98795 18.9898 6.97656C17.998 7.08074 17.0818 7.55479 16.4238 8.30425C16.1021 8.67038 15.8557 9.09633 15.6987 9.55775C15.5417 10.0192 15.4772 10.507 15.5088 10.9934C16.0049 10.9985 16.4957 10.8909 16.9443 10.6789C17.3928 10.4668 17.7873 10.1557 18.0982 9.76906Z" fill="white"/>
<path d="M34.3103 21.7121H30.5235L29.6142 24.3973H28.0103L31.597 14.4629H33.2634L36.8501 24.3973H35.2188L34.3103 21.7121ZM30.9157 20.4731H33.9173L32.4376 16.1153H32.3962L30.9157 20.4731Z" fill="white"/>
<path d="M44.5961 20.7752C44.5961 23.026 43.3914 24.472 41.5735 24.472C41.1129 24.4961 40.6549 24.39 40.2519 24.1659C39.8489 23.9418 39.5171 23.6088 39.2946 23.2048H39.2602V26.7923H37.7734V17.1533H39.2125V18.358H39.2399C39.4726 17.956 39.81 17.6247 40.2161 17.3992C40.6222 17.1737 41.0819 17.0625 41.5461 17.0775C43.3844 17.0775 44.5961 18.5306 44.5961 20.7752ZM43.068 20.7752C43.068 19.3088 42.3102 18.3447 41.1539 18.3447C40.018 18.3447 39.2539 19.3291 39.2539 20.7752C39.2539 22.2345 40.018 23.2119 41.1539 23.2119C42.3102 23.2119 43.068 22.2549 43.068 20.7752Z" fill="white"/>
<path d="M52.5683 20.7752C52.5683 23.0259 51.3636 24.472 49.5456 24.472C49.0851 24.4961 48.6271 24.39 48.2241 24.1659C47.821 23.9418 47.4893 23.6087 47.2667 23.2048H47.2323V26.7923H45.7456V17.1533H47.1847V18.358H47.212C47.4448 17.956 47.7822 17.6246 48.1883 17.3992C48.5944 17.1737 49.054 17.0625 49.5183 17.0775C51.3566 17.0775 52.5683 18.5306 52.5683 20.7752ZM51.0402 20.7752C51.0402 19.3088 50.2823 18.3447 49.1261 18.3447C47.9902 18.3447 47.2261 19.3291 47.2261 20.7752C47.2261 22.2345 47.9902 23.2119 49.1261 23.2119C50.2823 23.2119 51.0402 22.2549 51.0402 20.7752H51.0402Z" fill="white"/>
<path d="M57.8368 21.6289C57.947 22.6141 58.904 23.2609 60.2118 23.2609C61.465 23.2609 62.3665 22.6141 62.3665 21.7258C62.3665 20.9547 61.8228 20.493 60.5353 20.1766L59.2478 19.8664C57.4236 19.4258 56.5767 18.5727 56.5767 17.1883C56.5767 15.4742 58.0704 14.2969 60.1915 14.2969C62.2907 14.2969 63.7298 15.4742 63.7782 17.1883H62.2774C62.1876 16.1969 61.3681 15.5984 60.1704 15.5984C58.9728 15.5984 58.1532 16.2039 58.1532 17.0852C58.1532 17.7875 58.6767 18.2008 59.9571 18.5172L61.0517 18.7859C63.0899 19.2679 63.9368 20.0867 63.9368 21.5398C63.9368 23.3984 62.4564 24.5625 60.1017 24.5625C57.8985 24.5625 56.411 23.4258 56.3149 21.6289L57.8368 21.6289Z" fill="white"/>
<path d="M67.1455 15.4395V17.1535H68.5228V18.3309H67.1455V22.3238C67.1455 22.9441 67.4213 23.2332 68.0267 23.2332C68.1903 23.2304 68.3535 23.2189 68.5158 23.1988V24.3691C68.2436 24.42 67.9669 24.443 67.69 24.4379C66.2236 24.4379 65.6518 23.8871 65.6518 22.4824V18.3309H64.5986V17.1535H65.6517V15.4395H67.1455Z" fill="white"/>
<path d="M69.3203 20.7754C69.3203 18.4965 70.6625 17.0645 72.7555 17.0645C74.8555 17.0645 76.1914 18.4965 76.1914 20.7754C76.1914 23.0606 74.8625 24.4863 72.7555 24.4863C70.6492 24.4863 69.3203 23.0605 69.3203 20.7754ZM74.6766 20.7754C74.6766 19.2121 73.9601 18.2895 72.7555 18.2895C71.5508 18.2895 70.8351 19.2191 70.8351 20.7754C70.8351 22.3449 71.5508 23.2605 72.7555 23.2605C73.9601 23.2605 74.6765 22.3449 74.6765 20.7754H74.6766Z" fill="white"/>
<path d="M77.4175 17.1532H78.8355V18.386H78.8699C78.9658 18.001 79.1914 17.6607 79.5086 17.4224C79.8259 17.1841 80.2155 17.0623 80.612 17.0774C80.7834 17.0768 80.9542 17.0954 81.1214 17.1329V18.5235C80.9051 18.4574 80.6795 18.4271 80.4534 18.4337C80.2374 18.4249 80.0221 18.463 79.8222 18.5453C79.6224 18.6276 79.4427 18.7522 79.2955 18.9105C79.1483 19.0688 79.0371 19.2571 78.9696 19.4625C78.902 19.6678 78.8797 19.8853 78.9042 20.1001V24.3962H77.4175L77.4175 17.1532Z" fill="white"/>
<path d="M87.976 22.2691C87.776 23.584 86.4955 24.4863 84.8572 24.4863C82.7502 24.4863 81.4424 23.0746 81.4424 20.8098C81.4424 18.5379 82.7572 17.0645 84.7947 17.0645C86.7986 17.0645 88.0588 18.441 88.0588 20.6371V21.1465H82.9432V21.2363C82.9196 21.5029 82.9529 21.7714 83.0411 22.0241C83.1292 22.2768 83.2701 22.5078 83.4544 22.7018C83.6387 22.8959 83.8621 23.0485 84.1099 23.1495C84.3577 23.2506 84.6242 23.2977 84.8916 23.2879C85.2429 23.3208 85.5955 23.2394 85.8969 23.0559C86.1982 22.8723 86.4323 22.5964 86.5643 22.2691L87.976 22.2691ZM82.9502 20.1074H86.5713C86.5846 19.8677 86.5483 19.6279 86.4646 19.4029C86.3808 19.178 86.2515 18.9727 86.0847 18.8001C85.9178 18.6275 85.7171 18.4912 85.4952 18.3999C85.2732 18.3085 85.0347 18.264 84.7947 18.2691C84.5526 18.2677 84.3126 18.3142 84.0886 18.406C83.8646 18.4978 83.6609 18.6331 83.4894 18.804C83.3179 18.9749 83.182 19.178 83.0895 19.4018C82.9969 19.6255 82.9496 19.8653 82.9502 20.1074V20.1074Z" fill="white"/>
<path d="M30.7296 6.98589C31.0413 6.96352 31.354 7.01061 31.6453 7.12375C31.9366 7.2369 32.1992 7.41328 32.414 7.64018C32.6289 7.86708 32.7907 8.13884 32.8879 8.43586C32.985 8.73288 33.015 9.04775 32.9757 9.35776C32.9757 10.8828 32.1515 11.7594 30.7296 11.7594H29.0054V6.98589H30.7296ZM29.7468 11.0843H30.6468C30.8695 11.0976 31.0924 11.0611 31.2992 10.9774C31.506 10.8937 31.6916 10.7649 31.8424 10.6005C31.9932 10.436 32.1054 10.24 32.1709 10.0267C32.2364 9.81344 32.2535 9.58822 32.221 9.36749C32.2512 9.14762 32.2323 8.9238 32.1658 8.71207C32.0993 8.50034 31.9868 8.30594 31.8364 8.14279C31.6859 7.97965 31.5012 7.8518 31.2956 7.76841C31.0899 7.68502 30.8684 7.64816 30.6468 7.66045H29.7468V11.0843Z" fill="white"/>
<path d="M33.8132 9.95504C33.7906 9.71831 33.8176 9.47945 33.8927 9.2538C33.9678 9.02814 34.0892 8.82067 34.2491 8.64468C34.4091 8.46869 34.6041 8.32808 34.8216 8.23186C35.039 8.13564 35.2742 8.08594 35.512 8.08594C35.7499 8.08594 35.985 8.13564 36.2025 8.23186C36.42 8.32808 36.615 8.46869 36.7749 8.64468C36.9349 8.82067 37.0563 9.02814 37.1314 9.2538C37.2064 9.47945 37.2335 9.71831 37.2109 9.95504C37.2339 10.192 37.2072 10.4312 37.1323 10.6572C37.0574 10.8832 36.9361 11.0911 36.7761 11.2674C36.6161 11.4438 36.421 11.5847 36.2033 11.6811C35.9856 11.7775 35.7501 11.8273 35.512 11.8273C35.2739 11.8273 35.0385 11.7775 34.8208 11.6811C34.6031 11.5847 34.408 11.4438 34.248 11.2674C34.088 11.0911 33.9666 10.8832 33.8918 10.6572C33.8169 10.4312 33.7901 10.192 33.8132 9.95504ZM36.4796 9.95504C36.4796 9.17418 36.1288 8.71754 35.5132 8.71754C34.8952 8.71754 34.5476 9.17418 34.5476 9.95505C34.5476 10.7422 34.8953 11.1953 35.5132 11.1953C36.1288 11.1953 36.4796 10.739 36.4796 9.95504H36.4796Z" fill="white"/>
<path d="M41.7272 11.7586H40.9897L40.2452 9.10547H40.189L39.4476 11.7586H38.7171L37.7241 8.15625H38.4452L39.0905 10.905H39.1437L39.8843 8.15625H40.5663L41.3069 10.905H41.3632L42.0054 8.15625H42.7163L41.7272 11.7586Z" fill="white"/>
<path d="M43.5513 8.15707H44.2356V8.72933H44.2888C44.3789 8.52379 44.5309 8.3515 44.7236 8.23645C44.9163 8.12141 45.1401 8.06935 45.3638 8.08753C45.5391 8.07435 45.7151 8.10078 45.8787 8.16486C46.0424 8.22893 46.1896 8.32902 46.3093 8.45769C46.4291 8.58637 46.5183 8.74034 46.5705 8.90819C46.6226 9.07605 46.6364 9.25349 46.6106 9.42737V11.7594H45.8997V9.6059C45.8997 9.02699 45.6482 8.7391 45.1224 8.7391C45.0034 8.73356 44.8846 8.75381 44.7741 8.79847C44.6637 8.84314 44.5642 8.91116 44.4825 8.99786C44.4008 9.08457 44.3388 9.18792 44.3008 9.30082C44.2628 9.41373 44.2496 9.53352 44.2622 9.65199V11.7594H43.5513L43.5513 8.15707Z" fill="white"/>
<path d="M47.7437 6.75H48.4546V11.7586H47.7437V6.75Z" fill="white"/>
<path d="M49.4431 9.95511C49.4204 9.71836 49.4475 9.47949 49.5226 9.25383C49.5977 9.02816 49.7191 8.82068 49.8791 8.64469C50.0391 8.4687 50.2341 8.32809 50.4516 8.23186C50.6691 8.13564 50.9043 8.08594 51.1421 8.08594C51.3799 8.08594 51.6151 8.13564 51.8326 8.23186C52.0501 8.32809 52.2451 8.4687 52.4051 8.64469C52.5651 8.82068 52.6865 9.02816 52.7616 9.25383C52.8367 9.47949 52.8638 9.71836 52.8411 9.95511C52.8642 10.1921 52.8374 10.4313 52.7625 10.6573C52.6876 10.8833 52.5662 11.0912 52.4062 11.2675C52.2462 11.4438 52.0511 11.5847 51.8334 11.6811C51.6157 11.7776 51.3802 11.8274 51.1421 11.8274C50.904 11.8274 50.6685 11.7776 50.4508 11.6811C50.2331 11.5847 50.038 11.4438 49.878 11.2675C49.718 11.0912 49.5966 10.8833 49.5217 10.6573C49.4468 10.4313 49.42 10.1921 49.4431 9.95511ZM52.1095 9.95511C52.1095 9.17425 51.7587 8.71761 51.1431 8.71761C50.5251 8.71761 50.1775 9.17425 50.1775 9.95512C50.1775 10.7422 50.5251 11.1953 51.1431 11.1953C51.7587 11.1953 52.1095 10.7391 52.1095 9.95511H52.1095Z" fill="white"/>
<path d="M53.5894 10.7391C53.5894 10.0906 54.0722 9.71679 54.9292 9.66367L55.905 9.60742V9.29648C55.905 8.91601 55.6534 8.70117 55.1675 8.70117C54.7706 8.70117 54.4956 8.84687 54.4167 9.10156H53.7284C53.8011 8.48281 54.3831 8.08594 55.2003 8.08594C56.1034 8.08594 56.6128 8.53554 56.6128 9.29648V11.7578H55.9284V11.2516H55.8722C55.758 11.4332 55.5977 11.5812 55.4076 11.6806C55.2175 11.7799 55.0044 11.8271 54.7901 11.8172C54.6389 11.8329 54.4861 11.8168 54.3415 11.7698C54.1968 11.7228 54.0637 11.6461 53.9505 11.5445C53.8374 11.4429 53.7468 11.3188 53.6846 11.1801C53.6224 11.0413 53.59 10.8911 53.5894 10.7391ZM55.905 10.4312V10.1301L55.0253 10.1863C54.5292 10.2195 54.3042 10.3883 54.3042 10.7058C54.3042 11.0301 54.5854 11.2187 54.9722 11.2187C55.0855 11.2302 55.2 11.2188 55.3088 11.1851C55.4176 11.1514 55.5185 11.0962 55.6055 11.0227C55.6926 10.9493 55.7639 10.859 55.8154 10.7574C55.8668 10.6558 55.8973 10.5449 55.905 10.4312Z" fill="white"/>
<path d="M57.5474 9.95587C57.5474 8.81759 58.1325 8.0965 59.0427 8.0965C59.2678 8.08612 59.4912 8.14005 59.6869 8.25196C59.8825 8.36388 60.0422 8.52916 60.1474 8.7285H60.2005V6.75H60.9114V11.7586H60.2302V11.1894H60.1739C60.0606 11.3874 59.8954 11.5507 59.696 11.6615C59.4965 11.7722 59.2706 11.8264 59.0427 11.818C58.1263 11.818 57.5474 11.0969 57.5474 9.95587ZM58.2818 9.95587C58.2818 10.7199 58.6419 11.1797 59.2443 11.1797C59.8435 11.1797 60.2138 10.7133 60.2138 9.959C60.2138 9.20822 59.8396 8.73517 59.2443 8.73517C58.6458 8.73517 58.2817 9.19806 58.2817 9.95587H58.2818Z" fill="white"/>
<path d="M63.8528 9.95504C63.8301 9.71831 63.8572 9.47945 63.9323 9.2538C64.0073 9.02814 64.1287 8.82067 64.2887 8.64468C64.4487 8.46869 64.6436 8.32808 64.8611 8.23186C65.0786 8.13564 65.3138 8.08594 65.5516 8.08594C65.7894 8.08594 66.0246 8.13564 66.2421 8.23186C66.4596 8.32808 66.6545 8.46869 66.8145 8.64468C66.9744 8.82067 67.0958 9.02814 67.1709 9.2538C67.246 9.47945 67.2731 9.71831 67.2504 9.95504C67.2735 10.192 67.2467 10.4312 67.1719 10.6572C67.097 10.8832 66.9757 11.0911 66.8157 11.2674C66.6557 11.4438 66.4605 11.5847 66.2428 11.6811C66.0252 11.7775 65.7897 11.8273 65.5516 11.8273C65.3135 11.8273 65.078 11.7775 64.8603 11.6811C64.6426 11.5847 64.4475 11.4438 64.2875 11.2674C64.1275 11.0911 64.0062 10.8832 63.9313 10.6572C63.8564 10.4312 63.8297 10.192 63.8528 9.95504ZM66.5192 9.95504C66.5192 9.17418 66.1684 8.71754 65.5528 8.71754C64.9348 8.71754 64.5872 9.17418 64.5872 9.95505C64.5872 10.7422 64.9348 11.1953 65.5528 11.1953C66.1684 11.1953 66.5192 10.739 66.5192 9.95504Z" fill="white"/>
<path d="M68.2041 8.15707H68.8885V8.72933H68.9416C69.0317 8.52379 69.1837 8.3515 69.3764 8.23645C69.5691 8.12141 69.7929 8.06935 70.0166 8.08753C70.1919 8.07435 70.3679 8.10078 70.5316 8.16486C70.6952 8.22893 70.8424 8.32902 70.9622 8.45769C71.0819 8.58637 71.1712 8.74034 71.2233 8.90819C71.2755 9.07605 71.2892 9.25349 71.2635 9.42737V11.7594H70.5525V9.6059C70.5525 9.02699 70.301 8.7391 69.7752 8.7391C69.6562 8.73356 69.5374 8.75381 69.4269 8.79847C69.3165 8.84314 69.217 8.91116 69.1353 8.99786C69.0536 9.08457 68.9916 9.18792 68.9536 9.30082C68.9156 9.41373 68.9024 9.53352 68.915 9.65199V11.7594H68.2041V8.15707Z" fill="white"/>
<path d="M75.2807 7.25977V8.17305H76.0611V8.77188H75.2807V10.6242C75.2807 11.0016 75.4361 11.1668 75.79 11.1668C75.8806 11.1665 75.9712 11.161 76.0611 11.1504V11.7426C75.9335 11.7654 75.8041 11.7776 75.6744 11.7789C74.8838 11.7789 74.5689 11.5008 74.5689 10.8062V8.77185H73.9971V8.17301H74.5689V7.25977H75.2807Z" fill="white"/>
<path d="M77.0322 6.75H77.7369V8.73516H77.7932C77.8877 8.5277 78.0438 8.35443 78.2404 8.23895C78.437 8.12347 78.6643 8.07141 78.8916 8.08985C79.0659 8.08036 79.2402 8.10947 79.4021 8.1751C79.5639 8.24074 79.7092 8.34128 79.8277 8.46955C79.9462 8.59782 80.035 8.75066 80.0876 8.91717C80.1402 9.08367 80.1554 9.25974 80.1322 9.43282V11.7586H79.4205V9.6082C79.4205 9.03281 79.1525 8.7414 78.6502 8.7414C78.528 8.73138 78.4051 8.74818 78.2901 8.79062C78.1751 8.83306 78.0707 8.90013 77.9843 8.98711C77.8979 9.0741 77.8316 9.17892 77.7899 9.29423C77.7483 9.40954 77.7323 9.53256 77.7432 9.65468V11.7586H77.0323L77.0322 6.75Z" fill="white"/>
<path d="M84.2775 10.7852C84.1809 11.1144 83.9716 11.3992 83.6862 11.5898C83.4009 11.7803 83.0576 11.8644 82.7165 11.8274C82.4792 11.8337 82.2433 11.7882 82.0253 11.6942C81.8073 11.6002 81.6124 11.4598 81.4541 11.2829C81.2958 11.106 81.1778 10.8968 81.1085 10.6697C81.0391 10.4426 81.02 10.2032 81.0525 9.96803C81.0209 9.73212 81.0403 9.49218 81.1095 9.26444C81.1787 9.0367 81.296 8.82649 81.4535 8.64803C81.611 8.46957 81.805 8.32703 82.0224 8.23007C82.2397 8.1331 82.4754 8.08397 82.7134 8.086C83.7157 8.086 84.3204 8.7708 84.3204 9.902V10.1501H81.7767V10.1899C81.7656 10.3221 81.7822 10.4552 81.8255 10.5806C81.8688 10.706 81.9378 10.8209 82.0281 10.9181C82.1184 11.0153 82.2281 11.0925 82.35 11.1448C82.4719 11.1971 82.6034 11.2234 82.7361 11.2219C82.9061 11.2423 83.0784 11.2117 83.231 11.1339C83.3836 11.0562 83.5097 10.9348 83.5931 10.7852L84.2775 10.7852ZM81.7767 9.62428H83.5962C83.6052 9.50337 83.5887 9.38194 83.548 9.26776C83.5072 9.15359 83.443 9.0492 83.3595 8.96132C83.276 8.87343 83.175 8.80399 83.0631 8.75745C82.9511 8.71091 82.8307 8.6883 82.7095 8.69108C82.5865 8.68953 82.4645 8.71262 82.3506 8.75897C82.2367 8.80533 82.1332 8.87402 82.0463 8.96099C81.9594 9.04796 81.8907 9.15145 81.8444 9.26537C81.7981 9.37929 81.7751 9.50132 81.7767 9.62428H81.7767Z" fill="white"/>
</g>
<defs>
<clipPath id="clip0_4893_31713">
<rect width="95.7313" height="32" fill="white" transform="translate(0.46875)"/>
</clipPath>
</defs>
</svg>
